<svg width="17" height="17" viewBox="0 0 17 17" fill="none" xmlns="http://www.w3.org/2000/svg">
<g clip-path="url(#clip0_90_711)">
<path d="M13.4583 2.12499H12.75V1.41666C12.75 1.02708 12.4312 0.708328 12.0417 0.708328C11.6521 0.708328 11.3333 1.02708 11.3333 1.41666V2.12499H5.66667V1.41666C5.66667 1.02708 5.34792 0.708328 4.95833 0.708328C4.56875 0.708328 4.25 1.02708 4.25 1.41666V2.12499H3.54167C2.75542 2.12499 2.13208 2.7625 2.13208 3.54166L2.125 13.4583C2.125 14.2375 2.75542 14.875 3.54167 14.875H13.4583C14.2375 14.875 14.875 14.2375 14.875 13.4583V3.54166C14.875 2.7625 14.2375 2.12499 13.4583 2.12499ZM12.75 13.4583H4.25C3.86042 13.4583 3.54167 13.1396 3.54167 12.75V5.66666H13.4583V12.75C13.4583 13.1396 13.1396 13.4583 12.75 13.4583ZM5.66667 7.08333H7.79167C8.18125 7.08333 8.5 7.40208 8.5 7.79166V9.91666C8.5 10.3062 8.18125 10.625 7.79167 10.625H5.66667C5.27708 10.625 4.95833 10.3062 4.95833 9.91666V7.79166C4.95833 7.40208 5.27708 7.08333 5.66667 7.08333Z" fill="#5367FF"/>
</g>
<defs>
<clipPath id="clip0_90_711">
<rect width="17" height="17" fill="white"/>
</clipPath>
</defs>
</svg>
