<svg width="526" height="426" viewBox="0 0 526 426" fill="none" xmlns="http://www.w3.org/2000/svg">
<path d="M266.377 58.0881C169.619 76.2883 105.727 169.699 123.969 266.278C142.186 362.854 235.745 426.626 332.512 408.432C429.27 390.21 493.149 296.83 474.926 200.26C456.69 103.672 363.11 39.8849 266.377 58.0881Z" fill="#C5E1F9"/>
<path d="M458.156 152.279L448.605 182.203L433.004 238.513L410.663 209.544L389.684 230.262L367.954 204.365L357.501 224.442L350.221 224.033L326.301 219.601L335.036 241.933L353.386 245.442L337.565 324.047L326.059 334.916L308.906 310.093L292.371 266.167L269.782 269.459L256.948 254.458L262.934 217.343L280.828 209.426L293.925 214.874L320.207 202.946L286.724 192.04L260.582 192.52L257.814 185.142L279.556 166.434L266.158 152.456L286.68 125.326L314.864 129.594L356.17 107.615C356.17 107.615 372.333 94.6744 390.429 80.3708C418.938 97.301 442.641 122.049 458.156 152.279Z" fill="url(#paint0_linear_90_396)"/>
<path d="M163.577 117.994L156.846 137.071L145.493 171.96C145.204 172.908 145.425 173.936 146.082 174.658L161.926 191.786C162.59 192.477 163.8 192.755 164.483 192.594C165.407 192.39 166.174 191.755 166.512 190.879L173.556 172.118L198.999 193.304L165.721 236.614L143.454 243.029C142.424 243.323 141.67 244.194 141.493 245.262L139.272 260.027C139.135 260.96 139.461 261.889 140.165 262.511L158.981 278.903L132.402 272.296L123.85 265.197C113.927 210.686 130.124 157.291 163.577 117.994Z" fill="#69AEEB"/>
<path d="M199.14 332.961L177.892 305.732L187.151 266.278L242.928 300.296L218.431 390.182L206.683 373.072L199.671 334.16C199.59 333.714 199.407 333.308 199.14 332.961Z" fill="#69AEEB"/>
<path d="M208.112 160.19L180.49 122.65C206.344 102.709 224.927 95.8264 232.181 93.7078L230.931 133.379L208.112 160.19Z" fill="#69AEEB"/>
<path d="M344.946 3.4722L344.587 0.91687C348.099 0.424377 351.608 0.114594 355.018 0L355.105 2.58014C351.788 2.69162 348.369 2.9921 344.946 3.4722ZM375.336 4.3363C372.078 3.62393 368.696 3.11908 365.283 2.82791L365.503 0.257111C369.028 0.557556 372.522 1.08102 375.889 1.81509L375.336 4.3363ZM325.069 8.15848L324.266 5.70538C327.629 4.6058 331.008 3.65179 334.313 2.86505L334.912 5.37708C331.675 6.14523 328.365 7.0806 325.069 8.15848ZM394.348 11.3333C393.65 10.9585 392.933 10.5899 392.222 10.2368C389.911 9.09387 387.509 8.05936 385.086 7.17041L385.979 4.74829C388.489 5.6713 390.975 6.7399 393.37 7.92618C394.109 8.29166 394.85 8.67264 395.57 9.05981L394.348 11.3333ZM306.107 15.9019L304.972 13.582C308.14 12.0364 311.339 10.5992 314.479 9.31381L315.46 11.7019C312.372 12.9656 309.226 14.378 306.107 15.9019ZM410.678 23.286C408.224 20.9196 405.614 18.7206 402.921 16.7444L404.451 14.666C407.24 16.7072 409.94 18.9838 412.475 21.4307L410.678 23.286ZM288.216 25.9436L286.829 23.7661C289.792 21.886 292.796 20.0896 295.756 18.4232L297.025 20.6718C294.105 22.3166 291.139 24.0883 288.216 25.9436ZM271.411 37.7601L269.828 35.7189C272.593 33.5817 275.407 31.5064 278.188 29.5489L279.677 31.6583C276.928 33.5941 274.145 35.6477 271.411 37.7601ZM423.447 39.0641C421.601 36.1556 419.608 33.3711 417.526 30.7879L419.543 29.1711C421.684 31.8286 423.732 34.6937 425.631 37.6826L423.447 39.0641ZM255.66 50.9796L253.923 49.0686C256.501 46.7301 259.13 44.4318 261.739 42.2389L263.405 44.2119C260.821 46.3831 258.214 48.6597 255.66 50.9796ZM432.625 57.2549C431.35 54.0336 429.95 50.8991 428.461 47.935L430.773 46.7796C432.296 49.8119 433.727 53.0177 435.03 56.3071L432.625 57.2549ZM240.937 65.3422L239.066 63.558C241.465 61.0523 243.922 58.5713 246.367 56.1863L248.173 58.0292C245.75 60.3956 243.314 62.855 240.937 65.3422ZM438.666 76.7807C437.878 73.4077 436.982 70.0842 436.004 66.9001L438.474 66.1443C439.47 69.3842 440.382 72.7665 441.183 76.1953L438.666 76.7807ZM442.095 96.9756C441.71 93.5344 441.232 90.118 440.677 86.8224L443.225 86.395C443.789 89.737 444.273 93.1999 444.664 96.6876L442.095 96.9756ZM443.358 117.449C443.308 113.996 443.178 110.545 442.973 107.194L445.555 107.036C445.763 110.427 445.893 113.918 445.943 117.412L443.358 117.449ZM445.366 138.149L442.784 137.976C443.02 134.537 443.187 131.087 443.284 127.717L445.868 127.788C445.769 131.195 445.601 134.68 445.366 138.149ZM443.187 158.771L440.628 158.409C441.112 155.005 441.537 151.573 441.89 148.209L444.463 148.482C444.103 151.876 443.675 155.336 443.187 158.771ZM439.6 179.186L437.072 178.659C437.773 175.293 438.428 171.898 439.014 168.562L441.561 169.008C440.969 172.369 440.311 175.794 439.6 179.186ZM434.747 199.331L432.253 198.656C433.156 195.342 434.015 191.991 434.813 188.692L437.326 189.296C436.522 192.619 435.657 195.995 434.747 199.331ZM428.731 219.161L426.28 218.343C427.366 215.088 428.418 211.792 429.404 208.54L431.877 209.289C430.884 212.563 429.826 215.884 428.731 219.161ZM421.638 238.625L419.233 237.68C420.493 234.483 421.721 231.247 422.885 228.059L425.315 228.939C424.145 232.151 422.907 235.41 421.638 238.625ZM413.53 257.689L411.178 256.62C412.596 253.507 413.992 250.339 415.326 247.201L417.706 248.211C416.366 251.367 414.96 254.554 413.53 257.689ZM404.463 276.316L402.167 275.13C403.225 273.092 404.283 271.004 405.313 268.929C405.81 267.932 406.303 266.931 406.79 265.931L409.114 267.062C408.624 268.065 408.131 269.072 407.631 270.075C406.592 272.166 405.527 274.266 404.463 276.316ZM394.463 294.464L392.232 293.163C393.954 290.221 395.663 287.21 397.314 284.212L399.579 285.454C397.916 288.471 396.197 291.503 394.463 294.464ZM383.534 312.073L381.371 310.654C383.242 307.814 385.107 304.896 386.916 301.981L389.116 303.341C387.295 306.274 385.414 309.214 383.534 312.073ZM371.666 329.068L369.587 327.531C371.603 324.806 373.627 321.997 375.597 319.175L377.716 320.652C375.733 323.489 373.698 326.324 371.666 329.068ZM138.759 329.814C138.455 327.256 138.197 324.623 137.989 321.99L140.568 321.789C140.773 324.388 141.027 326.986 141.325 329.511L138.759 329.814ZM358.844 345.366L356.862 343.712C359.04 341.104 361.218 338.416 363.34 335.715L365.376 337.31C363.238 340.029 361.041 342.74 358.844 345.366ZM142.383 350.285C141.589 346.986 140.875 343.56 140.267 340.101L142.814 339.652C143.413 343.062 144.114 346.435 144.896 349.678L142.383 350.285ZM345.052 360.856L343.175 359.081C345.508 356.625 347.851 354.076 350.141 351.505L352.071 353.218C349.765 355.81 347.404 358.381 345.052 360.856ZM148.713 370.12C147.434 366.98 146.243 363.681 145.176 360.314L147.639 359.537C148.688 362.835 149.855 366.069 151.108 369.148L148.713 370.12ZM330.254 375.408L328.507 373.506C331.002 371.223 333.512 368.838 335.967 366.422L337.782 368.262C335.303 370.7 332.771 373.103 330.254 375.408ZM158.319 388.643C156.461 385.793 154.695 382.751 153.069 379.605L155.365 378.421C156.951 381.494 158.676 384.458 160.485 387.233L158.319 388.643ZM314.411 388.832L312.819 386.8C315.478 384.724 318.159 382.541 320.794 380.308L322.466 382.274C319.807 384.529 317.098 386.738 314.411 388.832ZM297.472 400.874L296.073 398.706C298.899 396.888 301.763 394.952 304.581 392.945L306.083 395.045C303.231 397.077 300.333 399.037 297.472 400.874ZM171.709 404.709C169.198 402.364 166.781 399.793 164.525 397.074L166.517 395.426C168.705 398.065 171.044 400.555 173.474 402.825L171.709 404.709ZM279.398 411.173L278.243 408.865C281.244 407.372 284.288 405.746 287.295 404.03L288.579 406.27C285.529 408.014 282.439 409.661 279.398 411.173ZM188.809 416.801C185.709 415.203 182.69 413.366 179.835 411.343L181.331 409.24C184.089 411.191 187.003 412.966 189.997 414.509L188.809 416.801ZM260.172 419.201L259.347 416.757C262.506 415.692 265.729 414.475 268.925 413.134L269.924 415.512C266.673 416.878 263.39 418.117 260.172 419.201ZM208.605 423.727C205.155 423.033 201.745 422.1 198.468 420.954L199.321 418.52C202.486 419.626 205.781 420.527 209.117 421.199L208.605 423.727ZM239.91 424.194L239.519 421.645C242.802 421.143 246.172 420.468 249.532 419.632L250.156 422.138C246.718 422.989 243.271 423.683 239.91 424.194ZM225.168 425.34C223.105 425.34 221.032 425.269 219.009 425.127L219.192 422.553C222.509 422.785 225.935 422.822 229.376 422.661L229.497 425.238C228.051 425.306 226.593 425.34 225.168 425.34Z" fill="#00046D"/>
<path d="M225.351 54.9876C221.897 54.907 218.443 54.9009 215.068 54.9659L215.018 52.3858C218.428 52.3177 221.922 52.3269 225.413 52.4074L225.351 54.9876ZM245.886 56.2823C242.454 55.9354 239.003 55.6504 235.63 55.4367L235.792 52.8597C239.199 53.0765 242.683 53.3646 246.146 53.7146L245.886 56.2823ZM194.567 56.3443L194.263 53.7796C197.639 53.3831 201.126 53.061 204.626 52.8287L204.797 55.4057C201.34 55.6349 197.899 55.9509 194.567 56.3443ZM259.693 58.0137C258.502 57.8371 257.295 57.6637 256.11 57.5026L256.46 54.9442C257.658 55.1084 258.874 55.2819 260.075 55.4615L259.693 58.0137ZM174.364 59.9093L173.759 57.4005C177.057 56.6044 180.489 55.8951 183.961 55.2849L184.408 57.8279C180.991 58.4256 177.612 59.1257 174.364 59.9093ZM154.859 66.1071L153.888 63.716C157.031 62.4399 160.339 61.2536 163.708 60.185L164.49 62.6474C161.183 63.6912 157.943 64.8558 154.859 66.1071ZM136.744 75.4705L135.332 73.3085C138.187 71.4532 141.234 69.6877 144.387 68.0678L145.572 70.3599C142.497 71.9426 139.527 73.6617 136.744 75.4705ZM121.124 88.4361L119.238 86.6737C121.59 84.1679 124.162 81.7551 126.886 79.5033L128.537 81.4887C125.896 83.6723 123.402 86.0109 121.124 88.4361ZM109.423 104.923L107.127 103.737C108.728 100.646 110.568 97.6322 112.594 94.7826L114.704 96.2755C112.746 99.026 110.971 101.938 109.423 104.923ZM102.724 124.009L100.189 123.498C100.887 120.054 101.821 116.65 102.966 113.379L105.408 114.234C104.3 117.39 103.397 120.68 102.724 124.009ZM98.6747 144.356C98.6064 142.913 98.5723 141.46 98.5723 140.035C98.5723 137.969 98.6436 135.903 98.7864 133.887L101.368 134.07C101.228 136.024 101.157 138.031 101.157 140.035C101.16 141.42 101.191 142.832 101.256 144.235L98.6747 144.356ZM466.542 162.999C464.171 160.58 461.708 158.149 459.216 155.773L461.003 153.908C463.514 156.303 465.999 158.756 468.391 161.193L466.542 162.999ZM101.784 164.975C100.93 161.543 100.235 158.102 99.7234 154.748L102.277 154.357C102.78 157.634 103.456 160.998 104.294 164.353L101.784 164.975ZM480.384 178.204C478.209 175.624 475.928 173.022 473.604 170.473L475.519 168.739C477.861 171.312 480.167 173.936 482.364 176.541L480.384 178.204ZM108.418 184.712C107.053 181.459 105.808 178.186 104.722 174.977L107.174 174.15C108.238 177.3 109.46 180.518 110.801 183.711L108.418 184.712ZM492.96 194.447C491.021 191.699 488.964 188.921 486.847 186.192L488.892 184.616C491.03 187.372 493.112 190.182 495.073 192.96L492.96 194.447ZM117.677 203.333C115.933 200.285 114.279 197.2 112.765 194.165L115.08 193.016C116.572 196.008 118.201 199.046 119.923 202.051L117.677 203.333ZM503.966 211.764C502.319 208.846 500.54 205.888 498.685 202.971L500.866 201.586C502.747 204.541 504.546 207.539 506.219 210.497L503.966 211.764ZM128.922 220.802C126.892 217.962 124.928 215.069 123.082 212.21L125.257 210.813C127.079 213.638 129.021 216.497 131.029 219.306L128.922 220.802ZM512.955 230.166C511.683 227.081 510.268 223.94 508.745 220.83L511.069 219.696C512.617 222.856 514.054 226.049 515.344 229.187L512.955 230.166ZM141.715 237.159C139.456 234.505 137.247 231.798 135.146 229.119L137.185 227.527C139.261 230.181 141.448 232.86 143.685 235.487L141.715 237.159ZM519.288 249.583C518.519 246.352 517.582 243.048 516.502 239.758L518.959 238.956C520.061 242.313 521.017 245.687 521.805 248.985L519.288 249.583ZM155.756 252.445C153.314 249.973 150.906 247.446 148.594 244.934L150.499 243.187C152.789 245.68 155.179 248.186 157.596 250.636L155.756 252.445ZM170.823 266.711C168.229 264.41 165.654 262.053 163.172 259.705L164.95 257.831C167.413 260.161 169.967 262.499 172.539 264.782L170.823 266.711ZM522.09 269.741C521.978 266.43 521.677 263.016 521.196 259.6L523.756 259.241C524.25 262.747 524.56 266.25 524.675 269.654L522.09 269.741ZM186.763 279.99C184.035 277.856 181.32 275.663 178.692 273.473L180.349 271.491C182.959 273.665 185.652 275.843 188.358 277.961L186.763 279.99ZM522.857 290.487L520.331 289.936C521.041 286.683 521.55 283.307 521.839 279.903L524.417 280.12C524.116 283.639 523.592 287.126 522.857 290.487ZM203.45 292.311C200.611 290.335 197.772 288.303 195.02 286.268L196.556 284.193C199.292 286.212 202.107 288.232 204.927 290.193L203.45 292.311ZM220.792 303.688C217.854 301.87 214.909 299.996 212.045 298.116L213.463 295.96C216.309 297.828 219.235 299.689 222.155 301.495L220.792 303.688ZM515.596 310.137L513.318 308.913C513.694 308.219 514.063 307.504 514.417 306.791C515.565 304.481 516.598 302.086 517.489 299.667L519.915 300.56C518.994 303.062 517.92 305.546 516.735 307.937C516.365 308.678 515.984 309.415 515.596 310.137ZM238.708 314.135C235.686 312.475 232.649 310.756 229.682 309.028L230.989 306.801C233.933 308.517 236.949 310.223 239.956 311.874L238.708 314.135ZM257.137 323.653C256.128 323.164 255.123 322.672 254.114 322.173C252.032 321.142 249.929 320.076 247.862 319.011L249.05 316.718C251.105 317.778 253.193 318.837 255.266 319.862C256.265 320.355 257.264 320.847 258.266 321.334L257.137 323.653ZM503.206 327.008L501.344 325.215C503.715 322.765 505.921 320.16 507.898 317.471L509.983 318.998C507.935 321.783 505.654 324.477 503.206 327.008ZM276.021 332.23C272.859 330.892 269.663 329.489 266.523 328.061L267.593 325.713C270.715 327.132 273.889 328.523 277.029 329.854L276.021 332.23ZM295.324 339.825C292.097 338.651 288.833 337.415 285.621 336.154L286.571 333.751C289.757 335.008 293 336.235 296.208 337.4L295.324 339.825ZM486.922 340.141L485.541 337.96C488.455 336.117 491.241 334.129 493.829 332.05L495.452 334.064C492.786 336.201 489.919 338.245 486.922 340.141ZM315.009 346.376C311.726 345.382 308.397 344.325 305.123 343.235L305.939 340.785C309.194 341.869 312.496 342.919 315.76 343.907L315.009 346.376ZM468.264 349.523L467.315 347.122C470.539 345.852 473.679 344.452 476.651 342.966L477.809 345.273C474.771 346.794 471.559 348.225 468.264 349.523ZM335.038 351.815C331.712 351.013 328.326 350.148 324.985 349.241L325.664 346.751C328.981 347.652 332.342 348.51 335.643 349.303L335.038 351.815ZM448.34 355.665L447.754 353.153C451.133 352.366 454.462 351.471 457.652 350.495L458.412 352.961C455.167 353.955 451.778 354.866 448.34 355.665ZM355.362 356.043C351.995 355.451 348.564 354.794 345.166 354.085L345.693 351.558C349.066 352.261 352.467 352.914 355.809 353.5L355.362 356.043ZM375.925 358.939C372.53 358.579 369.064 358.152 365.617 357.666L365.98 355.11C369.397 355.594 372.834 356.018 376.198 356.371L375.925 358.939ZM427.812 359.14L427.526 356.575C430.967 356.191 434.39 355.714 437.694 355.16L438.126 357.703C434.771 358.267 431.302 358.75 427.812 359.14ZM396.655 360.342C393.248 360.246 389.758 360.075 386.276 359.837L386.453 357.263C389.897 357.498 393.357 357.666 396.73 357.762L396.655 360.342ZM407.053 360.416L407.016 357.836C410.476 357.783 413.932 357.656 417.29 357.452L417.445 360.029C414.047 360.233 410.55 360.364 407.053 360.416Z" fill="#00046D"/>
<path d="M113.675 176.287C113.675 176.287 103.563 163.947 96.8047 157.254C90.0466 150.56 78.7738 131.796 94.2852 128.107C109.797 124.418 101.977 119.456 110.709 117.316C119.44 115.182 125.488 117.849 127.964 124.171C130.443 130.492 137.468 140.639 142.805 139.28C148.145 137.923 174.715 133.048 170.806 157.994C166.893 182.94 120.415 206.765 113.675 176.287Z" fill="#212957"/>
<path d="M99.1466 163.882C99.1466 163.882 87.0205 160.397 83.6321 158.309C80.2375 156.225 80.7805 162.166 83.4552 167.313C86.1268 172.458 88.0444 178.074 93.0556 176.023C98.0699 173.967 102.212 164.6 99.1466 163.882Z" fill="#F7B68B"/>
<path d="M93.0498 165.037C93.0498 165.037 71.103 137.285 67.3485 131.242C63.594 125.193 63.926 132.682 66.8148 142.402C69.7067 152.124 83.7504 177.07 88.0045 175.481C92.2617 173.899 105.03 169.135 93.0498 165.037Z" fill="#F7B68B"/>
<path d="M127.932 168.045C130.284 165.226 106.988 163.934 99.4322 162.655C94.7375 161.865 89.4657 171.823 87.9918 176.507C87.185 179.068 110.811 188.577 127.932 168.045Z" fill="#225AAA"/>
<path d="M146.335 213.025C146.335 213.025 149.736 157.139 131.609 156.64C130.011 156.597 117.202 154.048 108.25 164.777C105.113 168.537 104.815 188.444 114.999 195.872C115.35 196.126 121.053 206.749 122.443 211.904C124.513 219.585 146.335 213.025 146.335 213.025Z" fill="url(#paint1_linear_90_396)"/>
<path d="M150.675 170.835C150.675 170.835 171.458 191.228 172.196 193.716C172.938 196.2 163.493 209.233 141.527 181.342C129.454 166.016 150.675 170.835 150.675 170.835Z" fill="#F7B68B"/>
<path d="M113.464 145.815C111.255 139.283 119.189 145.112 119.189 145.112C119.189 145.112 120.508 154.196 125.283 159.23C124.669 160.078 123.968 160.887 123.186 161.642C120.191 164.517 116.493 166.112 112.862 166.4C114.913 158.341 114.913 150.105 113.464 145.815Z" fill="#F7B68B"/>
<path d="M120.809 151.362C120.192 153.289 119.143 155.051 117.638 156.498C116.617 157.476 115.463 158.244 114.212 158.805C114.765 153.512 114.454 148.745 113.465 145.815C111.255 139.282 119.19 145.112 119.19 145.112C119.19 145.112 119.605 147.967 120.809 151.362Z" fill="#EC9568"/>
<path d="M104.938 132.112C104.938 132.112 105.544 141.314 108.085 145.276C110.623 149.234 113.676 154.456 117.642 151.92C120.816 149.891 121.008 142.962 121.617 139.694C122.206 136.513 116.152 136.417 115.622 126.961C115.429 123.545 108.448 133.224 104.938 132.112Z" fill="#F7B68B"/>
<path d="M159.493 196.014L147.872 223.677L139.522 234.514L136.919 238.829L137.611 249.091C137.611 249.091 138.042 249.258 138.56 248.304C138.669 248.1 138.734 249.307 138.734 249.307C138.734 249.307 140.661 249.112 141.536 243.534C141.632 242.927 141.921 245.953 141.921 245.953C141.921 245.953 142.374 246.201 143.364 244.101C143.689 243.401 143.469 242.376 144.018 241.363C144.589 240.31 145.874 237.813 146.839 236.515C147.807 235.217 149.002 234.493 150.438 232.411C152.291 229.704 152.371 227.276 152.371 227.276C152.371 227.276 165.58 209.045 169.161 202.915C172.748 196.785 174.48 194.078 171.234 192.846C167.991 191.616 159.493 196.014 159.493 196.014Z" fill="#F7B68B"/>
<path d="M159.034 219.932L149.583 217.169L149.906 216.069L159.357 218.835L159.034 219.932Z" fill="#9AC7F7"/>
<path d="M157.072 222.004L148.868 218.873L149.278 217.804L157.482 220.935L157.072 222.004Z" fill="#EA3E72"/>
<path d="M138.094 240.582C138.094 240.582 137.964 245.095 137.784 247.471L137.61 249.09C137.61 249.09 138.042 249.258 138.56 248.304L138.411 242.23L140.508 237.881L138.094 240.582Z" fill="#EC9568"/>
<path d="M141.806 245.928L141.791 245.9L141.788 245.872L141.586 244.621C141.688 245.259 141.806 245.928 141.806 245.928Z" fill="#EC9568"/>
<path d="M142.436 238.609L140.45 242.273C140.45 242.273 140.562 245.798 140.019 248.217C140.562 247.406 141.151 245.996 141.536 243.534C141.542 243.494 141.551 243.472 141.561 243.466L141.291 242.007L142.436 238.609Z" fill="#EC9568"/>
<path d="M60.5947 118.533L62.6737 115.488C62.6737 115.488 63.1236 117.028 62.3758 118.121C61.7335 119.066 60.9485 120.224 60.9485 120.224L60.5947 118.533Z" fill="#F7B68B"/>
<path d="M61.543 122.098L62.3342 119.834L64.7234 119.081C64.7234 119.081 65.1703 119.645 63.504 120.862C63.1348 121.144 62.3591 123.653 62.3591 123.653L61.543 122.098Z" fill="#F7B68B"/>
<path d="M64.719 131.753C64.719 131.753 61.7029 127.921 59.9405 122.801C58.178 117.681 59.565 117.294 59.9312 115.659C60.288 114.026 60.5673 111.697 61.1661 113.568C61.7619 115.442 60.9148 118.614 61.1786 119.605C61.4423 120.593 62.5438 121.733 63.3754 122.984C64.2101 124.242 64.6662 125.217 64.5669 123.721C64.4676 122.216 64.4304 121.711 64.5918 121.203C64.7562 120.689 64.9331 119.868 65.6498 119.927C66.3573 119.983 65.9632 121.116 65.9973 121.615C66.0315 122.117 67.1827 124.558 67.3378 125.149C67.4992 125.744 67.043 127.782 66.8972 129.101C66.8258 129.752 66.4007 131.27 65.8329 132.642C65.2496 134.051 65.5536 133.01 64.719 131.753Z" fill="#F7B68B"/>
<path d="M127.262 158.043C127.262 158.043 122.388 170.414 138.811 182.94C148.018 189.962 154.568 169.999 154.568 169.999C154.568 169.999 130.486 150.3 127.262 158.043Z" fill="#225AAA"/>
<path d="M145.341 346.181L146.194 322.954L139.045 320.46L136.631 327.008C136.631 327.008 142.095 354.41 145.341 346.181Z" fill="#F7B68B"/>
<path d="M140.245 341.191C140.344 340.878 145.93 346.261 142.116 321.529L146.386 322.978C146.386 322.978 149.439 340.466 144.431 350.545C142.634 354.16 141.921 346.28 140.245 341.191Z" fill="#212957"/>
<path d="M135.178 327.336L130.278 323.979L131.045 320.86L77.8736 282.05C77.8736 282.05 60.6246 272.68 73.936 256.701C91.1354 236.038 123.229 212.294 123.229 212.294C123.229 212.294 139.975 217.262 140.949 223.729C143.391 239.932 95.9914 271.503 95.9914 271.503C95.9914 271.503 117.169 280.894 138.293 313.624C143.022 320.947 143.605 322.04 143.605 322.04L135.178 327.336Z" fill="#212957"/>
<path d="M139.268 323.093C131.231 307.854 79.7819 269.332 79.2638 268.945L79.0527 268.787L79.2513 268.616L117.606 235.985L117.879 236.305L79.726 268.765C83.3471 271.488 131.824 308.074 139.64 322.898L139.268 323.093Z" fill="white"/>
<path d="M130.416 324.137L130.143 323.818C130.174 323.793 133.159 321.259 138.936 317.762L139.153 318.121C133.41 321.597 130.447 324.112 130.416 324.137Z" fill="white"/>
<path d="M70.0705 397.083L68.3795 405.765C68.3795 405.765 46.2527 413.484 35.4856 408.131C32.752 406.768 35.9479 405.142 42.675 402.76C49.1725 400.468 59.5921 395.475 63.6414 392.923C67.6844 390.368 70.0705 397.083 70.0705 397.083Z" fill="#F7B68B"/>
<path d="M122.444 211.51C122.444 211.51 105.285 323.901 65.8813 385.88C62.0057 391.978 61.3262 393.651 61.3262 393.651L70.9731 399.895L73.8681 394.871C73.8681 394.871 113.703 348.575 115.931 338.682C118.165 328.789 118.215 310.093 143.559 278.689C168.904 247.288 147.723 212.628 146.33 211.355C144.937 210.082 122.444 211.51 122.444 211.51Z" fill="#212957"/>
<path d="M66.8757 397.665L66.5312 397.427C66.6678 397.235 80.184 377.721 101.935 341.993C108.203 331.701 117.89 309.778 128.44 263.806C134.752 236.305 138.422 212.92 138.456 212.687L138.872 212.752C138.835 212.985 135.164 236.385 128.85 263.902C118.285 309.926 108.579 331.89 102.295 342.21C80.5346 377.954 67.0122 397.473 66.8757 397.665Z" fill="white"/>
<path d="M136.013 225.046C133.881 224.194 132.147 221.923 130.856 218.303C129.903 215.629 129.559 213.167 129.556 213.142L129.975 213.087C129.987 213.183 131.343 222.723 136.171 224.658L136.013 225.046Z" fill="white"/>
<path d="M43.2595 402.441C40.8423 408.184 59.7235 406.143 69.3549 400.76L68.3805 405.765C68.3805 405.765 46.2538 413.484 35.4867 408.131C33.144 406.964 35.1857 404.73 43.2595 402.441Z" fill="#212957"/>
<path d="M0.720285 76.9203L9.03605 152.453C9.07329 152.567 9.13845 152.654 9.1912 152.756C9.6194 154.113 10.1159 155.33 10.783 156.337C14.2179 161.525 20.8209 163.012 26.1734 160.017C26.3192 159.976 26.462 159.933 26.5923 159.846L26.9677 159.598L42.5225 149.334L101.13 107.222C101.682 106.859 101.937 106.175 101.76 105.534L95.0236 32.3894C94.9832 32.2345 94.9119 32.0859 94.825 31.9527C94.6513 31.6894 94.3906 31.4725 94.0803 31.3611C93.6211 31.1907 93.1029 31.2433 92.6933 31.5159L79.1306 40.4673C75.7887 28.2823 75.7732 28.242 75.646 28.0438C75.1774 27.3376 74.2218 27.1424 73.5081 27.6132L1.35329 75.2353C0.800972 75.6008 0.543419 76.2884 0.720285 76.9203Z" fill="url(#paint2_linear_90_396)"/>
<path d="M20.5354 79.1377L85.3891 36.3321C82.3172 36.6109 79.2516 35.2821 77.4023 32.4914C76.8748 31.6922 76.4745 30.6949 76.1239 29.5737L3.98145 77.1833L11.7573 150.752L11.7946 150.833C12.1762 152.394 12.682 153.639 13.3522 154.642C15.9369 158.548 20.9667 159.617 24.9601 157.204C25.7234 156.532 26.6016 155.401 26.3564 149.272L19.9024 80.832C19.7255 80.1878 19.9831 79.5032 20.5354 79.1377Z" fill="#CFEAF9"/>
<path d="M19.2632 83.0621L19.1701 83.1427L19.0709 83.2015C14.4134 86.0201 8.65132 84.7471 5.66943 80.2405C5.07368 79.3453 4.59891 78.2829 4.21725 77.0284L3.98145 77.1833L11.7573 150.752L11.7946 150.833C12.1762 152.394 12.682 153.639 13.3522 154.642C15.9369 158.548 20.9667 159.617 24.9601 157.204C25.7234 156.532 26.6016 155.401 26.3564 149.272L20.0297 82.1794C19.8032 82.5263 19.5456 82.8082 19.2632 83.0621Z" fill="white"/>
<path d="M225.403 11.6585L176.945 69.6289C174.991 71.9643 175.307 75.4334 177.647 77.3816L254.102 141.067C256.436 143.012 259.914 142.699 261.866 140.367L310.327 82.3932C312.275 80.064 311.959 76.5918 309.625 74.6466L233.167 10.9616C230.83 9.01643 227.352 9.32927 225.403 11.6585Z" fill="#EA3E72"/>
<path d="M261.867 140.367L310.328 82.3932C312.277 80.064 311.96 76.5918 309.627 74.6466L295.459 62.8488L243.473 125.044C241.518 127.376 241.835 130.845 244.171 132.794L254.104 141.067C256.437 143.012 259.915 142.699 261.867 140.367Z" fill="#D32A6B"/>
<path d="M259.75 110.121C258.831 111.22 258.98 112.853 260.079 113.766L270.011 122.04C271.106 122.953 272.742 122.805 273.657 121.708L311.196 76.7994C310.87 75.991 310.346 75.2476 309.626 74.6467L297.702 64.7165L259.75 110.121Z" fill="#A6272D"/>
<path d="M259.623 138.496C258.701 139.592 257.072 139.744 255.974 138.827L246.045 130.557C244.946 129.643 244.797 128.005 245.716 126.911L295.831 66.9556L307.755 76.8827C308.851 77.7995 308.996 79.4349 308.081 80.5252L259.623 138.496Z" fill="white"/>
<path d="M245.716 126.912C244.797 128.005 244.946 129.644 246.045 130.557L249.129 133.125C248.03 132.211 247.882 130.576 248.8 129.479L298.912 69.5267L295.831 66.9559L245.716 126.912Z" fill="#EAEAEC"/>
<path d="M273.302 134.637L268.682 137.471L266.715 142.513L252.916 131.022L256.208 127.082L259.503 123.145L273.302 134.637Z" fill="#F8C44F"/>
<path d="M214.258 79.8071L242.736 45.7391L245.734 48.2325L217.252 82.3035L214.258 79.8071Z" fill="white"/>
<path d="M201.922 78.2612L239.005 33.8975L243.491 37.6361L206.412 81.9966L201.922 78.2612Z" fill="white"/>
<path d="M522.972 124.645L463.042 85.5868C460.631 84.0133 457.398 84.6948 455.822 87.1014L408.133 160.01C406.563 162.417 407.236 165.645 409.65 167.215L469.58 206.276C471.991 207.846 475.224 207.168 476.797 204.761L524.486 131.849C526.062 129.446 525.382 126.218 522.972 124.645Z" fill="#F8C44F"/>
<path d="M409.65 167.215L469.58 206.276C471.991 207.846 475.224 207.168 476.797 204.761L482.516 196.02L418.218 154.116C415.807 152.543 412.573 153.224 410.997 155.631L408.133 160.01C406.563 162.417 407.236 165.645 409.65 167.215Z" fill="#F9A918"/>
<path d="M434.067 167.738C432.928 167.001 431.408 167.32 430.669 168.454L427.802 172.833C427.067 173.961 427.384 175.478 428.519 176.219L474.942 206.474C475.671 206.077 476.313 205.504 476.797 204.761L481.002 198.331L434.067 167.738Z" fill="#E19710"/>
<path d="M411.166 164.904C410.03 164.167 409.711 162.649 410.446 161.519L413.316 157.139C414.052 156.009 415.575 155.69 416.711 156.43L478.691 196.823L474.487 203.256C473.745 204.386 472.222 204.699 471.092 203.965L411.166 164.904Z" fill="white"/>
<path d="M416.711 156.43C415.575 155.689 414.052 156.008 413.316 157.139L411.78 159.477C412.522 158.35 413.499 158.864 414.632 159.604L476.615 200L478.691 196.822L416.711 156.43Z" fill="#EAEAEC"/>
<path d="M416.308 177.309L413.128 173.286L408.163 172L414.18 162.801L418.254 165.456L422.325 168.11L416.308 177.309Z" fill="#0450CF"/>
<path d="M475.765 110.527L495.748 123.557L495.015 124.678L475.026 111.651L475.765 110.527Z" fill="white"/>
<path d="M456.033 112.478L501.9 142.37L500.516 144.483L454.652 114.593L456.033 112.478Z" fill="white"/>
<path d="M456.94 120.221L494.433 144.653L493.049 146.769L455.56 122.337L456.94 120.221Z" fill="white"/>
<defs>
<linearGradient id="paint0_linear_90_396" x1="256.948" y1="334.916" x2="504.615" y2="139.145" gradientUnits="userSpaceOnUse">
<stop stop-color="#5367FF"/>
<stop offset="1" stop-color="#00D09C"/>
</linearGradient>
<linearGradient id="paint1_linear_90_396" x1="126.455" y1="215.635" x2="126.455" y2="156.346" gradientUnits="userSpaceOnUse">
<stop stop-color="#5367FF"/>
<stop offset="1" stop-color="#00D09C"/>
</linearGradient>
<linearGradient id="paint2_linear_90_396" x1="0.665039" y1="161.548" x2="129.669" y2="64.3082" gradientUnits="userSpaceOnUse">
<stop stop-color="#5367FF"/>
<stop offset="1" stop-color="#00D09C"/>
</linearGradient>
</defs>
</svg>
