<svg width="20" height="20" viewBox="0 0 20 20" fill="none" xmlns="http://www.w3.org/2000/svg">
<g clip-path="url(#clip0_303_962)">
<path d="M10.0003 1.66669C5.40033 1.66669 1.66699 5.40002 1.66699 10C1.66699 14.6 5.40033 18.3334 10.0003 18.3334C14.6003 18.3334 18.3337 14.6 18.3337 10C18.3337 5.40002 14.6003 1.66669 10.0003 1.66669ZM9.16699 16.6084C5.87533 16.2 3.33366 13.4 3.33366 10C3.33366 9.48335 3.40033 8.99169 3.50866 8.50835L7.50033 12.5V13.3334C7.50033 14.25 8.25033 15 9.16699 15V16.6084ZM14.917 14.4917C14.7003 13.8167 14.0837 13.3334 13.3337 13.3334H12.5003V10.8334C12.5003 10.375 12.1253 10 11.667 10H6.66699V8.33335H8.33366C8.79199 8.33335 9.16699 7.95835 9.16699 7.50002V5.83335H10.8337C11.7503 5.83335 12.5003 5.08335 12.5003 4.16669V3.82502C14.942 4.81669 16.667 7.20835 16.667 10C16.667 11.7334 16.0003 13.3084 14.917 14.4917Z" fill="white"/>
</g>
<defs>
<clipPath id="clip0_303_962">
<rect width="20" height="20" fill="white"/>
</clipPath>
</defs>
</svg>
