<svg width="35" height="35" viewBox="0 0 35 35" fill="none" xmlns="http://www.w3.org/2000/svg">
<path d="M32.8144 17.84C32.8144 16.581 32.7102 15.6622 32.4846 14.7095H17.8145V20.392H26.4255C26.2519 21.8042 25.3144 23.931 23.2311 25.3601L23.2019 25.5503L27.8403 29.0718L28.1617 29.1032C31.113 26.432 32.8144 22.5018 32.8144 17.84Z" fill="#4285F4"/>
<path d="M17.8128 32.8125C22.0315 32.8125 25.5731 31.4513 28.16 29.1034L23.2294 25.3602C21.91 26.262 20.1391 26.8915 17.8128 26.8915C13.6809 26.8915 10.174 24.2204 8.92389 20.5283L8.74065 20.5436L3.91757 24.2016L3.85449 24.3734C6.4239 29.3755 11.7017 32.8125 17.8128 32.8125Z" fill="#34A853"/>
<path d="M8.92549 20.5284C8.59564 19.5756 8.40474 18.5547 8.40474 17.4999C8.40474 16.445 8.59564 15.4242 8.90814 14.4714L8.8994 14.2685L4.01586 10.5518L3.85608 10.6262C2.7971 12.702 2.18945 15.0329 2.18945 17.4999C2.18945 19.9669 2.7971 22.2977 3.85608 24.3735L8.92549 20.5284Z" fill="#FBBC05"/>
<path d="M17.8129 8.10829C20.7469 8.10829 22.726 9.3503 23.8545 10.3882L28.2642 6.16875C25.556 3.70174 22.0316 2.1875 17.8129 2.1875C11.7017 2.1875 6.42391 5.62428 3.85449 10.6263L8.90656 14.4715C10.174 10.7795 13.681 8.10829 17.8129 8.10829Z" fill="#EB4335"/>
</svg>
