<svg width="20" height="20" viewBox="0 0 20 20" fill="none" xmlns="http://www.w3.org/2000/svg">
<g clip-path="url(#clip0_303_949)">
<path d="M17.4997 5.00002H11.1747L13.9163 2.25835L13.333 1.66669L9.99967 5.00002L6.66634 1.66669L6.07467 2.25835L8.82468 5.00002H2.49967C1.58301 5.00002 0.833008 5.74169 0.833008 6.66669V16.6667C0.833008 17.5834 1.58301 18.3334 2.49967 18.3334H17.4997C18.4163 18.3334 19.1663 17.5834 19.1663 16.6667V6.66669C19.1663 5.74169 18.4163 5.00002 17.4997 5.00002ZM17.4997 16.6667H2.49967V6.66669H17.4997V16.6667ZM7.49967 8.33335V15L13.333 11.6667L7.49967 8.33335Z" fill="white"/>
</g>
<defs>
<clipPath id="clip0_303_949">
<rect width="20" height="20" fill="white"/>
</clipPath>
</defs>
</svg>
