<svg width="22" height="22" viewBox="0 0 22 22" fill="none" xmlns="http://www.w3.org/2000/svg">
<g clip-path="url(#clip0_78_356)">
<path d="M16.7752 5.2342C16.4177 4.8767 15.8402 4.8767 15.4827 5.2342L11.0002 9.70753L6.51766 5.22503C6.16016 4.86753 5.58266 4.86753 5.22516 5.22503C4.86766 5.58253 4.86766 6.16003 5.22516 6.51753L9.70766 11L5.22516 15.4825C4.86766 15.84 4.86766 16.4175 5.22516 16.775C5.58266 17.1325 6.16016 17.1325 6.51766 16.775L11.0002 12.2925L15.4827 16.775C15.8402 17.1325 16.4177 17.1325 16.7752 16.775C17.1327 16.4175 17.1327 15.84 16.7752 15.4825L12.2927 11L16.7752 6.51753C17.1235 6.1692 17.1235 5.58253 16.7752 5.2342Z" fill="#212529"/>
</g>
<defs>
<clipPath id="clip0_78_356">
<rect width="22" height="22" fill="white"/>
</clipPath>
</defs>
</svg>
